<?xml version="1.0" encoding="UTF-8" standalone="no"?>
<svg
    xmlns:dc="http://purl.org/dc/elements/1.1/"
    xmlns:cc="http://creativecommons.org/ns#"
    xmlns:rdf="http://www.w3.org/1999/02/22-rdf-syntax-ns#"
    xmlns="http://www.w3.org/2000/svg"
    xmlns:sodipodi="http://sodipodi.sourceforge.net/DTD/sodipodi-0.dtd"
    xmlns:inkscape="http://www.inkscape.org/namespaces/inkscape"
    width="42"
    height="42"
    viewBox="0 0 11.1125 11.1125"
    version="1.1"
    id="svg8"
    inkscape:version="1.0.2-2 (e86c870879, 2021-01-15)"
    sodipodi:docname="logo-colored2.svg">
  <defs
     id="defs2" />
  <sodipodi:namedview
     id="base"
     pagecolor="#ffffff"
     bordercolor="#666666"
     borderopacity="1.0"
     inkscape:pageopacity="0"
     inkscape:pageshadow="2"
     inkscape:zoom="10"
     inkscape:cx="57.337866"
     inkscape:cy="29.075965"
     inkscape:document-units="mm"
     inkscape:current-layer="g968"
     inkscape:document-rotation="0"
     showgrid="false"
     inkscape:window-width="3840"
     inkscape:window-height="2080"
     inkscape:window-x="3829"
     inkscape:window-y="-11"
     inkscape:window-maximized="1"
     inkscape:pagecheckerboard="false"
     units="px" />
  <metadata
     id="metadata5">
    <rdf:RDF>
      <cc:Work
         rdf:about="">
        <dc:format>image/svg+xml</dc:format>
        <dc:type
           rdf:resource="http://purl.org/dc/dcmitype/StillImage" />
        <dc:title></dc:title>
      </cc:Work>
    </rdf:RDF>
  </metadata>
  <g
     inkscape:groupmode="layer"
     id="g968"
     inkscape:label="main"
     style="display:inline">
    <path
       id="path1008"
       style="display:inline;opacity:1;mix-blend-mode:normal;fill:#e6f7e1;fill-opacity:1;fill-rule:evenodd;stroke:#394241;stroke-width:0.381;stroke-miterlimit:4;stroke-dasharray:none;stroke-opacity:1"
       d="M 10.815145,5.5547744 A 5.2636318,5.2687149 0 0 1 5.5515153,10.823488 5.2636318,5.2687149 0 0 1 0.28788462,5.5547744 5.2636318,5.2687149 0 0 1 5.5515153,0.2860595 5.2636318,5.2687149 0 0 1 10.815145,5.5547744 Z"
       inkscape:export-xdpi="465.70001"
       inkscape:export-ydpi="465.70001" />
    <path
       style="display:inline;opacity:1;mix-blend-mode:normal;fill:#8ed07d;fill-opacity:1;stroke:#394241;stroke-width:0.132292;stroke-linecap:butt;stroke-linejoin:miter;stroke-miterlimit:4;stroke-dasharray:none;stroke-opacity:1"
       d="M 10.071522,5.5547744 A 4.520009,4.5243745 0 0 1 5.5515153,10.079147 4.520009,4.5243745 0 0 1 1.0315065,5.5547744 4.520009,4.5243745 0 0 1 5.5515153,1.0303994 4.520009,4.5243745 0 0 1 10.071522,5.5547744 Z"
       id="path1010"
       inkscape:export-xdpi="465.70001"
       inkscape:export-ydpi="465.70001" />
    <path
       id="path1012"
       style="display:inline;opacity:1;mix-blend-mode:normal;fill:#e4f6de;fill-opacity:1;fill-rule:evenodd;stroke:#394241;stroke-width:0.264583;stroke-miterlimit:4;stroke-dasharray:none;stroke-opacity:1"
       d="m 8.2782313,3.4978104 a 0.99620533,0.99716729 0 0 1 -0.996205,0.997168 0.99620533,0.99716729 0 0 1 -0.996206,-0.997168 0.99620533,0.99716729 0 0 1 0.996206,-0.997167 0.99620533,0.99716729 0 0 1 0.996205,0.997167 z"
       inkscape:export-xdpi="465.70001"
       inkscape:export-ydpi="465.70001" />
    <path
       id="path1014"
       style="display:inline;opacity:1;mix-blend-mode:normal;fill:#394241;fill-opacity:1;stroke:#394241;stroke-width:0.132292;stroke-linecap:butt;stroke-linejoin:miter;stroke-miterlimit:4;stroke-dasharray:none;stroke-opacity:1"
       d="m 6.1665103,6.0291114 0.362793,-1.729342 m 0,0 -1.678701,0.935426 c 0,0 0.507188,0.0474 0.759757,0.206425 0.25257,0.159026 0.556151,0.587491 0.556151,0.587491"
       inkscape:export-xdpi="465.70001"
       inkscape:export-ydpi="465.70001" />
    <path
       id="path1016"
       style="display:inline;opacity:1;mix-blend-mode:normal;fill:none;stroke:#394241;stroke-width:0.132;stroke-linecap:round;stroke-linejoin:miter;stroke-miterlimit:4;stroke-dasharray:none;stroke-opacity:1"
       d="m 2.8789345,7.9067184 -0.5782041,0.785102 m 5.8312779,-0.953399 0.673759,0.98138 m -3.200692,0.07241 0.02713,1.2964136 M 2.8293132,7.5401614 C 2.0841484,7.0595114 1.5609154,6.3432344 1.0846774,5.1276854 m 5.2510059,3.037117 c 1.565971,-0.02362 3.1253259,-1.1282499 3.7386737,-2.2919899"
       sodipodi:nodetypes="cccccccccc"
       inkscape:export-xdpi="465.70001"
       inkscape:export-ydpi="465.70001" />
    <g
       id="g1026"
       style="fill:#45954d;fill-opacity:1;stroke:none;stroke-opacity:1"
       transform="translate(0.00677962,-0.03127322)"
       inkscape:export-xdpi="465.70001"
       inkscape:export-ydpi="465.70001">
      <path
         style="display:inline;fill:#cae5c1;fill-opacity:1;fill-rule:evenodd;stroke:none;stroke-width:0.0269407;stroke-linecap:round;stroke-opacity:1"
         d="M 8.505902,8.1900327 8.2143526,7.7654947 8.4591298,7.6195127 c 0.5506069,-0.328376 1.047841,-0.767506 1.4030352,-1.239084 l 0.07046,-0.09355 -0.0128,0.07484 c -0.082767,0.48376 -0.30625,1.076837 -0.5745653,1.524772 -0.1008621,0.168383 -0.3570904,0.517576 -0.4764757,0.64935 l -0.071327,0.07873 z"
         id="path1018"
         inkscape:export-xdpi="465.70001"
         inkscape:export-ydpi="465.70001" />
      <path
         style="display:inline;fill:#cae5c1;fill-opacity:1;fill-rule:evenodd;stroke:none;stroke-width:0.0269407;stroke-linecap:round;stroke-opacity:1"
         d="M 5.6947136,9.78319 C 5.6879536,9.6422617 5.6828286,9.3872697 5.6833236,9.2165407 l 8.996e-4,-0.310415 0.1047906,-0.06548 c 0.1368939,-0.08554 0.3882578,-0.323017 0.4904542,-0.463355 l 0.080931,-0.111135 0.2082474,-0.01182 c 0.3803844,-0.02159 0.8510395,-0.141515 1.297223,-0.330527 l 0.2096587,-0.08882 0.3001579,0.43557 c 0.1650868,0.239563 0.3001579,0.443507 0.3001579,0.453207 0,0.02468 -0.1876353,0.200193 -0.3598442,0.336599 C 7.8780736,9.4072457 7.3539626,9.68306 6.8315378,9.841564 6.5909701,9.914554 6.2021559,9.993084 6.000476,10.00942 5.923302,10.01572 5.8256991,10.02498 5.7835811,10.03011 l -0.076578,0.0093 z"
         id="path1020"
         inkscape:export-xdpi="465.70001"
         inkscape:export-ydpi="465.70001" />
      <path
         style="display:inline;fill:#cae5c1;fill-opacity:1;fill-rule:evenodd;stroke:none;stroke-width:0.0269407;stroke-linecap:round;stroke-opacity:1"
         d="M 5.1398679,10.017257 C 4.1884222,9.933694 3.2165381,9.4967897 2.5160663,8.8377427 l -0.1261678,-0.118706 0.21553,-0.289988 c 0.1185414,-0.159492 0.2216215,-0.291499 0.2290666,-0.293348 0.00745,-0.0019 0.059841,0.06838 0.1164354,0.156066 0.1213623,0.188035 0.3700815,0.435839 0.5621639,0.560097 0.5624248,0.36383 1.2599882,0.437436 1.8765803,0.198012 l 0.1430793,-0.05556 v 0.294403 c 0,0.161922 0.0055,0.3967533 0.012229,0.5218473 l 0.012229,0.227444 -0.1198055,-0.0026 c -0.065893,-0.0014 -0.1997861,-0.0096 -0.2975398,-0.01818 z"
         id="path1022"
         inkscape:export-xdpi="465.70001"
         inkscape:export-ydpi="465.70001" />
      <path
         style="display:inline;fill:#cae5c1;fill-opacity:1;fill-rule:evenodd;stroke:none;stroke-width:0.0269407;stroke-linecap:round;stroke-opacity:1"
         d="M 2.1635305,8.4698927 C 1.9097453,8.1663167 1.7204681,7.8762037 1.5570923,7.5403777 1.2671987,6.9444897 1.1262435,6.3732707 1.1069707,5.7162637 l -0.00851,-0.289987 0.041376,0.09354 c 0.097201,0.219754 0.3172379,0.649387 0.4168077,0.813835 0.2559593,0.422741 0.6076541,0.835074 0.9264318,1.086166 0.1353842,0.106639 0.1490128,0.123649 0.1696878,0.211798 0.012364,0.05272 0.0418,0.147838 0.065413,0.211382 l 0.042933,0.115534 -0.2344342,0.319447 c -0.1289388,0.175695 -0.2398767,0.318883 -0.2465287,0.318195 -0.00665,-6.88e-4 -0.059131,-0.05752 -0.1166208,-0.126285 z"
         id="path1024"
         inkscape:export-xdpi="465.70001"
         inkscape:export-ydpi="465.70001" />
    </g>
    <path
       id="path1028"
       style="display:inline;opacity:1;mix-blend-mode:normal;fill:#e4f6de;fill-opacity:1;fill-rule:evenodd;stroke:#394241;stroke-width:0.27;stroke-miterlimit:4;stroke-dasharray:none;stroke-opacity:1"
       d="M 6.5574843,7.1065184 A 1.9072757,1.9091177 0 0 1 4.6502091,9.0156364 1.9072757,1.9091177 0 0 1 2.7429334,7.1065184 1.9072757,1.9091177 0 0 1 4.6502091,5.1974004 1.9072757,1.9091177 0 0 1 6.5574843,7.1065184 Z"
       inkscape:export-xdpi="465.70001"
       inkscape:export-ydpi="465.70001" />
    <path
       id="path1030"
       style="opacity:1;mix-blend-mode:normal;fill:#000000;fill-opacity:0;stroke:#394241;stroke-width:0.132292;stroke-linecap:butt;stroke-linejoin:miter;stroke-miterlimit:4;stroke-dasharray:none;stroke-opacity:1"
       d="m 4.5859576,9.0166314 c -0.4550684,-0.740982 -0.536541,-2.94365 0.010119,-3.784058 m 1.9302377,1.867597 c -1.222413,0.573856 -2.9362113,0.537553 -3.865322,-0.01532"
       inkscape:export-xdpi="465.70001"
       inkscape:export-ydpi="465.70001" />
  </g>
</svg>
